<svg width="900" height="900" viewBox="0 0 900 900" fill="none" xmlns="http://www.w3.org/2000/svg">
<path d="M450 360L165 75.0003C140.147 50.1474 99.8528 50.1474 75 75.0002C50.1472 99.8531 50.1472 140.147 75 165L360 450L75 735C50.1472 759.853 50.1472 800.147 75 825C99.8528 849.853 140.147 849.853 165 825L450 540L735 825C759.853 849.853 800.147 849.853 825 825C849.853 800.147 849.853 759.853 825 735L540 450L825 165C849.853 140.147 849.853 99.8531 825 75.0002C800.147 50.1474 759.853 50.1474 735 75.0003L450 360Z" fill="#FF3B30"/>
</svg>
