<svg width="30" height="30" viewBox="0 0 30 30" fill="none" xmlns="http://www.w3.org/2000/svg">
<path d="M15 12L5.5 2.5C4.67157 1.67157 3.32843 1.67157 2.5 2.5C1.67157 3.32843 1.67157 4.67157 2.5 5.5L12 15L2.5 24.5C1.67157 25.3284 1.67157 26.6716 2.5 27.5C3.32843 28.3284 4.67157 28.3284 5.5 27.5L15 18L24.5 27.5C25.3284 28.3284 26.6716 28.3284 27.5 27.5C28.3284 26.6716 28.3284 25.3284 27.5 24.5L18 15L27.5 5.5C28.3284 4.67157 28.3284 3.32843 27.5 2.5C26.6716 1.67157 25.3284 1.67157 24.5 2.5L15 12Z" fill="#FF3B30"/>
</svg>
