<svg width="128" height="128" viewBox="0 0 128 128" fill="none" xmlns="http://www.w3.org/2000/svg">
<g clip-path="url(#clip0)">
<g filter="url(#filter0_dii)">
<path d="M19.7439 87.6628C35.0566 73.1173 28.7841 -1.53312 40.7679 3.34037C52.7516 8.21385 104.449 12.6184 94.0241 16.6186C83.5991 20.6189 91.8296 75.4317 73.0002 100.941L19.7439 87.6628Z" fill="#FEFFCB"/>
</g>
<path d="M41.7778 21.7778L78.2223 28.8889" stroke="black" stroke-opacity="0.17" stroke-width="2" stroke-linecap="round"/>
<path d="M40 29.3333L58.2222 32.8888" stroke="black" stroke-opacity="0.17" stroke-width="2" stroke-linecap="round"/>
<path d="M37.3333 44.4443L55.5555 47.9999" stroke="black" stroke-opacity="0.17" stroke-width="2" stroke-linecap="round"/>
<path d="M36.4445 52.4443L54.6667 55.9999" stroke="black" stroke-opacity="0.17" stroke-width="2" stroke-linecap="round"/>
<path d="M38.2222 36.4443L68.4444 41.7777" stroke="black" stroke-opacity="0.17" stroke-width="2" stroke-linecap="round"/>
<path d="M92.4445 66.2222L84.8889 51.1111" stroke="url(#paint0_linear)" stroke-width="5" stroke-linecap="round"/>
<path d="M79.5557 66.6667L80.4446 49.7778" stroke="url(#paint1_linear)" stroke-width="5" stroke-linecap="round"/>
<path d="M107.392 89.1973L110.082 73.864C110.619 70.8038 108.265 68 105.158 68H100H90.2223H85.3334H80.4446H70.6668H65.5092C62.4022 68 60.0476 70.8038 60.5844 73.864L63.2745 89.1973C63.6941 91.5889 65.7712 93.3333 68.1993 93.3333H72.4446H81.3334H85.3334H89.3334H98.2223H102.468C104.896 93.3333 106.973 91.5889 107.392 89.1973Z" stroke="#91BB70" stroke-width="7"/>
<path d="M70.6667 68H65.972C62.8588 68 60.5026 70.8143 61.0498 73.879L63.7085 88.7678C64.1344 91.1525 66.2083 92.8889 68.6307 92.8889H72.4444M70.6667 68L72.4444 92.8889M70.6667 68H80.4444M72.4444 92.8889H81.3333M100 68H104.695C107.808 68 110.164 70.8143 109.617 73.879L106.958 88.7678C106.532 91.1525 104.458 92.8889 102.036 92.8889H98.2222M100 68H90.2222M100 68L99.1111 80.4444L98.2222 92.8889M98.2222 92.8889H89.3333M80.4444 68H85.3333H90.2222M80.4444 68L81.3333 92.8889M81.3333 92.8889H85.3333H89.3333M89.3333 92.8889L90.2222 68" stroke="url(#paint2_linear)" stroke-width="6"/>
<path d="M60 68.8889H110.667" stroke="#AADA84" stroke-width="13" stroke-linecap="round"/>
<path d="M60 66.6667H100.889" stroke="#BCE79B" stroke-opacity="0.56" stroke-width="5" stroke-linecap="round"/>
<path d="M23.2886 105.984C23.2406 106.128 23.0726 106.296 22.7846 106.488C22.4966 106.68 22.2566 106.776 22.0646 106.776C21.0326 106.68 20.0006 106.596 18.9686 106.524C17.9606 106.452 16.9286 106.404 15.8726 106.38C16.0166 107.22 16.1486 108.06 16.2686 108.9C16.4126 109.74 16.5446 110.58 16.6646 111.42C18.7046 111.348 20.7206 111.24 22.7126 111.096C23.0486 111.096 23.3846 111.204 23.7206 111.42C24.0566 111.636 24.2246 111.84 24.2246 112.032C24.2246 112.296 24.1166 112.536 23.9006 112.752C23.6846 112.944 23.4206 113.064 23.1086 113.112C22.1006 113.28 21.0806 113.412 20.0486 113.508C19.0406 113.58 18.0086 113.64 16.9526 113.688C17.0726 114.528 17.1686 115.368 17.2406 116.208C17.3366 117.024 17.4206 117.84 17.4926 118.656C17.5406 118.992 17.5046 119.352 17.3846 119.736C17.2886 120.096 17.1206 120.276 16.8806 120.276C16.6646 120.276 16.4606 120.216 16.2686 120.096C16.0766 119.976 15.8966 119.844 15.7286 119.7C15.5846 119.532 15.4646 119.352 15.3686 119.16C15.2726 118.968 15.2126 118.8 15.1886 118.656C14.9486 116.592 14.6846 114.54 14.3966 112.5C14.1326 110.46 13.8326 108.408 13.4966 106.344H12.3086C11.9726 106.344 11.6606 106.308 11.3726 106.236C11.0846 106.164 10.8686 105.984 10.7246 105.696C10.6766 105.624 10.6406 105.504 10.6166 105.336C10.6166 105.168 10.6286 105 10.6526 104.832C10.7006 104.664 10.7726 104.508 10.8686 104.364C10.9646 104.22 11.0966 104.124 11.2646 104.076C12.2006 103.932 13.1966 103.872 14.2526 103.896C15.3326 103.92 16.3766 103.992 17.3846 104.112C18.4166 104.208 19.3766 104.352 20.2646 104.544C21.1766 104.736 21.9566 104.94 22.6046 105.156C23.0126 105.396 23.2406 105.672 23.2886 105.984ZM34.9549 108.18C35.0509 108.852 35.1229 109.572 35.1709 110.34C35.2429 111.084 35.2909 111.84 35.3149 112.608C35.3629 113.376 35.3869 114.12 35.3869 114.84C35.3869 115.56 35.3749 116.208 35.3509 116.784C36.1189 117.312 36.5749 117.78 36.7189 118.188C36.8869 118.596 36.9109 118.956 36.7909 119.268C36.6469 119.7 36.3829 119.928 35.9989 119.952C35.6389 119.952 35.2189 119.82 34.7389 119.556C34.4029 119.796 34.0189 120.06 33.5869 120.348C33.1549 120.612 32.6989 120.876 32.2189 121.14C31.7389 121.38 31.2589 121.596 30.7789 121.788C30.2989 121.98 29.8549 122.112 29.4469 122.184C28.6789 122.304 27.9829 122.16 27.3589 121.752C26.7589 121.344 26.3509 120.732 26.1349 119.916C25.9909 119.364 25.9549 118.8 26.0269 118.224C26.0989 117.624 26.2789 117.06 26.5669 116.532C26.8549 115.98 27.2389 115.488 27.7189 115.056C28.2229 114.624 28.8109 114.288 29.4829 114.048C29.6509 113.976 29.8789 113.916 30.1669 113.868C30.4789 113.82 30.7909 113.808 31.1029 113.832C31.4389 113.832 31.7749 113.892 32.1109 114.012C32.4469 114.132 32.7589 114.336 33.0469 114.624C33.0469 114.216 33.0349 113.772 33.0109 113.292C33.0109 112.788 32.9989 112.284 32.9749 111.78C32.9509 111.276 32.9149 110.808 32.8669 110.376C32.8429 109.92 32.8069 109.536 32.7589 109.224C32.7109 108.864 32.5669 108.648 32.3269 108.576C32.1109 108.48 31.8349 108.492 31.4989 108.612C30.9229 108.804 30.2509 109.176 29.4829 109.728C28.7149 110.28 27.9829 110.868 27.2869 111.492C27.0709 111.708 26.8189 111.804 26.5309 111.78C26.2669 111.756 26.0389 111.648 25.8469 111.456C25.6549 111.264 25.5469 111.048 25.5229 110.808C25.4989 110.544 25.5949 110.268 25.8109 109.98C26.2189 109.548 26.6749 109.104 27.1789 108.648C27.6829 108.192 28.2109 107.784 28.7629 107.424C29.3149 107.04 29.8789 106.728 30.4549 106.488C31.0309 106.248 31.6069 106.116 32.1829 106.092C33.0229 106.068 33.6709 106.26 34.1269 106.668C34.5829 107.052 34.8589 107.556 34.9549 108.18ZM30.7789 115.92C30.4669 115.992 30.1309 116.148 29.7709 116.388C29.4349 116.604 29.1229 116.88 28.8349 117.216C28.5709 117.528 28.3669 117.888 28.2229 118.296C28.1029 118.68 28.1029 119.064 28.2229 119.448C28.2709 119.592 28.3669 119.7 28.5109 119.772C28.6789 119.844 28.8589 119.856 29.0509 119.808C29.6269 119.688 30.2749 119.46 30.9949 119.124C31.7389 118.764 32.3269 118.38 32.7589 117.972C32.7589 117.828 32.6869 117.648 32.5429 117.432C32.3989 117.192 32.2309 116.964 32.0389 116.748C31.8469 116.508 31.6309 116.304 31.3909 116.136C31.1749 115.968 30.9709 115.896 30.7789 115.92ZM40.8874 109.872C40.9114 110.256 40.9474 110.736 40.9954 111.312C41.0674 111.864 41.1394 112.452 41.2114 113.076C41.2834 113.676 41.3554 114.276 41.4274 114.876C41.5234 115.476 41.6074 116.028 41.6794 116.532C41.9434 116.004 42.2674 115.356 42.6514 114.588C43.0354 113.82 43.4314 113.088 43.8394 112.392C44.2714 111.672 44.7034 111.072 45.1354 110.592C45.5914 110.088 45.9994 109.836 46.3594 109.836C46.7434 109.836 47.0914 110.028 47.4034 110.412C47.7394 110.772 48.0274 111.216 48.2674 111.744C48.5074 112.272 48.7114 112.836 48.8794 113.436C49.0714 114.036 49.2274 114.564 49.3474 115.02C49.4434 114.708 49.5634 114.36 49.7074 113.976C49.8754 113.568 50.0434 113.16 50.2114 112.752C50.4034 112.32 50.6074 111.9 50.8234 111.492C51.0634 111.084 51.3154 110.724 51.5794 110.412C51.8914 110.076 52.2274 109.836 52.5874 109.692C52.9474 109.524 53.2114 109.44 53.3794 109.44C53.5954 109.44 53.8474 109.512 54.1354 109.656C54.4474 109.776 54.7594 109.944 55.0714 110.16C55.3834 110.376 55.6714 110.64 55.9354 110.952C56.2234 111.24 56.4514 111.54 56.6194 111.852C56.9554 112.5 57.2194 113.208 57.4114 113.976C57.6274 114.744 57.7834 115.476 57.8794 116.172C57.9754 116.868 58.0354 117.492 58.0594 118.044C58.1074 118.572 58.1434 118.944 58.1674 119.16C58.1674 119.472 58.1314 119.712 58.0594 119.88C57.9874 120.024 57.8554 120.144 57.6634 120.24C57.3994 120.36 57.1714 120.408 56.9794 120.384C56.7874 120.336 56.6314 120.252 56.5114 120.132C56.3914 120.012 56.2954 119.88 56.2234 119.736C56.1514 119.568 56.1034 119.424 56.0794 119.304C56.0074 118.752 55.9234 118.188 55.8274 117.612C55.7554 117.036 55.6714 116.484 55.5754 115.956C55.4794 115.404 55.3594 114.9 55.2154 114.444C55.0954 113.964 54.9634 113.544 54.8194 113.184C54.7714 113.088 54.6874 112.968 54.5674 112.824C54.4714 112.656 54.3514 112.5 54.2074 112.356C54.0874 112.212 53.9674 112.092 53.8474 111.996C53.7274 111.9 53.6434 111.84 53.5954 111.816C53.3554 111.816 53.1034 112.044 52.8394 112.5C52.5754 112.932 52.3234 113.46 52.0834 114.084C51.8434 114.708 51.6154 115.368 51.3994 116.064C51.2074 116.736 51.0634 117.312 50.9674 117.792C50.9674 118.416 50.8474 118.884 50.6074 119.196C50.3674 119.484 50.1154 119.628 49.8514 119.628C49.5874 119.628 49.2994 119.532 48.9874 119.34C48.6994 119.124 48.5074 118.884 48.4114 118.62C48.2674 118.236 48.1114 117.804 47.9434 117.324C47.7754 116.844 47.5954 116.352 47.4034 115.848C47.2354 115.344 47.0554 114.852 46.8634 114.372C46.6954 113.892 46.5274 113.46 46.3594 113.076C46.0234 113.532 45.6874 114.036 45.3514 114.588C45.0394 115.14 44.7274 115.704 44.4154 116.28C44.1274 116.856 43.8394 117.432 43.5514 118.008C43.2874 118.56 43.0354 119.052 42.7954 119.484C42.6274 119.748 42.4474 119.988 42.2554 120.204C42.0634 120.396 41.8354 120.492 41.5714 120.492C41.3794 120.492 41.1754 120.408 40.9594 120.24C40.7434 120.048 40.5394 119.82 40.3474 119.556C40.1554 119.292 39.9754 118.992 39.8074 118.656C39.6634 118.32 39.5554 117.984 39.4834 117.648C39.2914 116.616 39.1234 115.488 38.9794 114.264C38.8594 113.016 38.7394 111.804 38.6194 110.628C38.5954 110.22 38.6434 109.848 38.7634 109.512C38.9074 109.152 39.1714 108.912 39.5554 108.792C39.9634 108.72 40.2754 108.78 40.4914 108.972C40.7074 109.164 40.8394 109.464 40.8874 109.872ZM67.6538 110.736C67.6058 110.472 67.5578 110.22 67.5098 109.98C67.4618 109.74 67.3418 109.584 67.1498 109.512C66.7418 109.392 66.3098 109.38 65.8538 109.476C65.3978 109.572 64.9778 109.728 64.5938 109.944C64.2098 110.136 63.8858 110.364 63.6218 110.628C63.3578 110.868 63.2138 111.084 63.1898 111.276C63.1178 111.636 63.2138 111.984 63.4778 112.32C63.7418 112.656 64.1258 112.992 64.6298 113.328C65.4698 113.832 66.3458 114.348 67.2578 114.876C68.1698 115.404 68.9378 115.944 69.5618 116.496C70.1858 117.048 70.6058 117.66 70.8218 118.332C71.0618 118.98 71.0138 119.724 70.6778 120.564C70.4138 121.212 69.9218 121.74 69.2018 122.148C68.4818 122.556 67.6898 122.88 66.8258 123.12C65.9618 123.336 65.0978 123.492 64.2338 123.588C63.3698 123.66 62.6378 123.696 62.0378 123.696C61.8938 123.696 61.7138 123.648 61.4978 123.552C61.3058 123.432 61.1138 123.3 60.9218 123.156C60.7538 123.012 60.5978 122.868 60.4538 122.724C60.3338 122.556 60.2738 122.412 60.2738 122.292C60.2738 121.86 60.4658 121.56 60.8498 121.392C61.2338 121.224 61.6298 121.14 62.0378 121.14C62.6138 121.14 63.2258 121.116 63.8738 121.068C64.5458 120.996 65.1818 120.9 65.7818 120.78C66.3818 120.636 66.9218 120.456 67.4018 120.24C67.8818 120.024 68.2178 119.748 68.4098 119.412C68.5778 119.124 68.4698 118.788 68.0858 118.404C67.7258 117.996 67.2338 117.576 66.6098 117.144C66.0098 116.712 65.3498 116.292 64.6298 115.884C63.9338 115.476 63.3338 115.104 62.8298 114.768C62.3258 114.432 61.8938 114.036 61.5338 113.58C61.1738 113.1 60.9458 112.512 60.8498 111.816C60.8258 111.192 60.9578 110.592 61.2458 110.016C61.5338 109.44 61.9058 108.936 62.3618 108.504C62.8418 108.048 63.3818 107.688 63.9818 107.424C64.5818 107.16 65.1818 107.028 65.7818 107.028C66.8138 107.076 67.6658 107.364 68.3378 107.892C69.0098 108.396 69.4058 109.152 69.5258 110.16C69.5258 110.496 69.4658 110.772 69.3458 110.988C69.2498 111.204 69.0698 111.336 68.8058 111.384C68.4698 111.432 68.1938 111.396 67.9778 111.276C67.7858 111.132 67.6778 110.952 67.6538 110.736ZM76.376 107.028C76.256 107.868 76.148 108.804 76.052 109.836C75.956 110.844 75.86 111.876 75.764 112.932C75.668 113.964 75.572 114.972 75.476 115.956C75.404 116.94 75.344 117.804 75.296 118.548C76.112 118.404 77.012 118.236 77.996 118.044C79.004 117.852 80.024 117.66 81.056 117.468C82.088 117.252 83.096 117.072 84.08 116.928C85.088 116.76 86 116.64 86.816 116.568C86.888 116.568 86.972 116.592 87.068 116.64C87.26 116.736 87.356 116.892 87.356 117.108C87.356 117.42 87.296 117.66 87.176 117.828C87.056 117.972 86.912 118.092 86.744 118.188C86.576 118.26 86.396 118.332 86.204 118.404C86.036 118.476 85.88 118.584 85.736 118.728C84.992 118.92 84.176 119.124 83.288 119.34C82.4 119.556 81.488 119.772 80.552 119.988C79.616 120.204 78.68 120.42 77.744 120.636C76.808 120.852 75.932 121.068 75.116 121.284C74.372 121.476 73.808 121.344 73.424 120.888C73.04 120.432 72.884 119.688 72.956 118.656C73.076 116.712 73.22 114.768 73.388 112.824C73.556 110.856 73.76 108.9 74 106.956C74.048 106.548 74.18 106.212 74.396 105.948C74.636 105.684 74.924 105.528 75.26 105.48C75.812 105.408 76.136 105.552 76.232 105.912C76.352 106.248 76.4 106.62 76.376 107.028ZM94.6242 106.812C94.5762 107.052 94.4082 107.184 94.1202 107.208C93.8322 107.232 93.5922 107.244 93.4002 107.244C92.8002 107.268 92.1762 107.328 91.5282 107.424C90.9042 107.52 90.2442 107.664 89.5482 107.856C89.2602 107.952 88.9482 107.916 88.6122 107.748C88.2762 107.58 88.0722 107.244 88.0002 106.74C88.0002 106.548 88.0722 106.392 88.2162 106.272C88.3602 106.152 88.5282 106.044 88.7202 105.948C89.0322 105.804 89.4042 105.684 89.8362 105.588C90.2682 105.468 90.7002 105.384 91.1322 105.336C91.5882 105.288 92.0202 105.276 92.4282 105.3C92.8362 105.3 93.1722 105.336 93.4362 105.408C93.8202 105.528 94.1202 105.708 94.3362 105.948C94.5762 106.188 94.6722 106.476 94.6242 106.812ZM93.7962 118.8C93.9642 119.184 94.0482 119.604 94.0482 120.06C94.0722 120.492 93.9522 120.792 93.6882 120.96C93.3522 121.176 92.9922 121.164 92.6082 120.924C92.2242 120.684 91.9362 120.36 91.7442 119.952C91.4802 119.448 91.2762 118.836 91.1322 118.116C90.9882 117.372 90.8802 116.64 90.8082 115.92C90.7362 115.2 90.6882 114.528 90.6642 113.904C90.6642 113.28 90.6642 112.812 90.6642 112.5C90.6882 112.164 90.7842 111.852 90.9522 111.564C91.1202 111.276 91.3362 111.108 91.6002 111.06C92.0322 111.084 92.3802 111.288 92.6442 111.672C92.9082 112.032 93.0282 112.488 93.0042 113.04C93.0042 113.472 93.0162 113.952 93.0402 114.48C93.0642 115.008 93.1122 115.536 93.1842 116.064C93.2562 116.592 93.3402 117.108 93.4362 117.612C93.5322 118.092 93.6522 118.488 93.7962 118.8ZM103.862 110.736C103.814 110.472 103.766 110.22 103.718 109.98C103.67 109.74 103.55 109.584 103.358 109.512C102.95 109.392 102.518 109.38 102.062 109.476C101.606 109.572 101.186 109.728 100.802 109.944C100.418 110.136 100.094 110.364 99.8299 110.628C99.5659 110.868 99.4219 111.084 99.3979 111.276C99.3259 111.636 99.4219 111.984 99.6859 112.32C99.9499 112.656 100.334 112.992 100.838 113.328C101.678 113.832 102.554 114.348 103.466 114.876C104.378 115.404 105.146 115.944 105.77 116.496C106.394 117.048 106.814 117.66 107.03 118.332C107.27 118.98 107.222 119.724 106.886 120.564C106.622 121.212 106.13 121.74 105.41 122.148C104.69 122.556 103.898 122.88 103.034 123.12C102.17 123.336 101.306 123.492 100.442 123.588C99.5779 123.66 98.8459 123.696 98.2459 123.696C98.1019 123.696 97.9219 123.648 97.7059 123.552C97.5139 123.432 97.3219 123.3 97.1299 123.156C96.9619 123.012 96.8059 122.868 96.6619 122.724C96.5419 122.556 96.4819 122.412 96.4819 122.292C96.4819 121.86 96.6739 121.56 97.0579 121.392C97.4419 121.224 97.8379 121.14 98.2459 121.14C98.8219 121.14 99.4339 121.116 100.082 121.068C100.754 120.996 101.39 120.9 101.99 120.78C102.59 120.636 103.13 120.456 103.61 120.24C104.09 120.024 104.426 119.748 104.618 119.412C104.786 119.124 104.678 118.788 104.294 118.404C103.934 117.996 103.442 117.576 102.818 117.144C102.218 116.712 101.558 116.292 100.838 115.884C100.142 115.476 99.5419 115.104 99.0379 114.768C98.5339 114.432 98.1019 114.036 97.7419 113.58C97.3819 113.1 97.1539 112.512 97.0579 111.816C97.0339 111.192 97.1659 110.592 97.4539 110.016C97.7419 109.44 98.1139 108.936 98.5699 108.504C99.0499 108.048 99.5899 107.688 100.19 107.424C100.79 107.16 101.39 107.028 101.99 107.028C103.022 107.076 103.874 107.364 104.546 107.892C105.218 108.396 105.614 109.152 105.734 110.16C105.734 110.496 105.674 110.772 105.554 110.988C105.458 111.204 105.278 111.336 105.014 111.384C104.678 111.432 104.402 111.396 104.186 111.276C103.994 111.132 103.886 110.952 103.862 110.736ZM117.336 111.852C117.792 111.828 118.248 111.936 118.704 112.176C119.16 112.416 119.388 112.788 119.388 113.292C119.34 113.7 119.112 113.964 118.704 114.084C118.32 114.18 118.008 114.228 117.768 114.228C117.288 114.228 116.772 114.24 116.22 114.264C115.668 114.288 115.104 114.324 114.528 114.372C114.48 115.164 114.432 115.908 114.384 116.604C114.36 117.3 114.336 117.924 114.312 118.476C114.288 119.004 114.276 119.436 114.276 119.772C114.276 120.108 114.288 120.288 114.312 120.312C114.84 120.216 115.404 120.06 116.004 119.844C116.628 119.604 117.24 119.352 117.84 119.088C118.464 118.8 119.064 118.512 119.64 118.224C120.24 117.912 120.804 117.624 121.332 117.36C121.572 117.24 121.788 117.204 121.98 117.252C122.196 117.3 122.328 117.408 122.376 117.576C122.424 117.84 122.388 118.164 122.268 118.548C122.148 118.932 121.932 119.28 121.62 119.592C121.26 119.88 120.78 120.216 120.18 120.6C119.604 120.96 118.98 121.308 118.308 121.644C117.636 121.98 116.952 122.28 116.256 122.544C115.584 122.784 114.984 122.928 114.456 122.976C113.664 123.048 113.064 122.832 112.656 122.328C112.248 121.824 112.02 121.188 111.972 120.42C111.924 119.652 111.912 118.764 111.936 117.756C111.984 116.748 112.032 115.68 112.08 114.552C111.624 114.6 111.18 114.648 110.748 114.696C110.34 114.72 109.944 114.756 109.56 114.804C109.248 114.804 108.9 114.732 108.516 114.588C108.156 114.444 107.976 114.168 107.976 113.76C107.976 113.616 108.036 113.424 108.156 113.184C108.276 112.944 108.54 112.764 108.948 112.644C109.932 112.476 111.024 112.332 112.224 112.212C112.296 111.084 112.38 109.992 112.476 108.936C112.572 107.88 112.656 106.92 112.728 106.056C112.752 105.768 112.836 105.516 112.98 105.3C113.124 105.084 113.28 104.976 113.448 104.976C113.856 104.952 114.24 105.06 114.6 105.3C114.984 105.516 115.176 105.768 115.176 106.056C115.08 106.872 114.984 107.796 114.888 108.828C114.816 109.86 114.744 110.916 114.672 111.996C115.152 111.948 115.608 111.924 116.04 111.924C116.496 111.9 116.928 111.876 117.336 111.852Z" fill="white"/>
</g>
<defs>
<filter id="filter0_dii" x="15.0001" y="-4" width="86.3428" height="108.868" filterUnits="userSpaceOnUse" color-interpolation-filters="sRGB">
<feFlood flood-opacity="0" result="BackgroundImageFix"/>
<feColorMatrix in="SourceAlpha" type="matrix" values="0 0 0 0 0 0 0 0 0 0 0 0 0 0 0 0 0 0 127 0" result="hardAlpha"/>
<feOffset dx="1" dy="1"/>
<feGaussianBlur stdDeviation="1"/>
<feComposite in2="hardAlpha" operator="out"/>
<feColorMatrix type="matrix" values="0 0 0 0 0 0 0 0 0 0 0 0 0 0 0 0 0 0 0.25 0"/>
<feBlend mode="normal" in2="BackgroundImageFix" result="effect1_dropShadow"/>
<feBlend mode="normal" in="SourceGraphic" in2="effect1_dropShadow" result="shape"/>
<feColorMatrix in="SourceAlpha" type="matrix" values="0 0 0 0 0 0 0 0 0 0 0 0 0 0 0 0 0 0 127 0" result="hardAlpha"/>
<feOffset dx="-1" dy="1"/>
<feGaussianBlur stdDeviation="2"/>
<feComposite in2="hardAlpha" operator="arithmetic" k2="-1" k3="1"/>
<feColorMatrix type="matrix" values="0 0 0 0 0 0 0 0 0 0 0 0 0 0 0 0 0 0 0.15 0"/>
<feBlend mode="normal" in2="shape" result="effect2_innerShadow"/>
<feColorMatrix in="SourceAlpha" type="matrix" values="0 0 0 0 0 0 0 0 0 0 0 0 0 0 0 0 0 0 127 0" result="hardAlpha"/>
<feOffset dx="-1" dy="-4"/>
<feGaussianBlur stdDeviation="5"/>
<feComposite in2="hardAlpha" operator="arithmetic" k2="-1" k3="1"/>
<feColorMatrix type="matrix" values="0 0 0 0 0 0 0 0 0 0 0 0 0 0 0 0 0 0 0.1 0"/>
<feBlend mode="normal" in2="effect2_innerShadow" result="effect3_innerShadow"/>
</filter>
<linearGradient id="paint0_linear" x1="88.4148" y1="66.2222" x2="88.4148" y2="51.1111" gradientUnits="userSpaceOnUse">
<stop stop-color="#918055"/>
<stop offset="1" stop-color="#C7A571"/>
</linearGradient>
<linearGradient id="paint1_linear" x1="79.9705" y1="66.6667" x2="79.9705" y2="50.2343" gradientUnits="userSpaceOnUse">
<stop stop-color="#918055"/>
<stop offset="1" stop-color="#C7A571"/>
</linearGradient>
<linearGradient id="paint2_linear" x1="85.3333" y1="68" x2="85.3333" y2="92.8889" gradientUnits="userSpaceOnUse">
<stop stop-color="#90B661"/>
<stop offset="1" stop-color="#A3CD6E"/>
</linearGradient>
<clipPath id="clip0">
<rect width="128" height="128" fill="white"/>
</clipPath>
</defs>
</svg>
