<svg width="900" height="900" viewBox="0 0 900 900" fill="none" xmlns="http://www.w3.org/2000/svg">
<path d="M810 30H450C416.863 30 390 56.8629 390 90C390 123.137 416.863 150 450 150H690V750H450C416.863 750 390 776.863 390 810C390 843.137 416.863 870 450 870H810V30Z" fill="#23A3FF"/>
<path d="M270 270L90 450L270 630C286.569 646.569 313.431 646.569 330 630C346.569 613.431 346.569 586.569 330 570L255 495H555C579.853 495 600 474.853 600 450C600 425.147 579.853 405 555 405H255L330 330C346.569 313.431 346.569 286.569 330 270C313.431 253.431 286.569 253.431 270 270Z" fill="#23A3FF"/>
</svg>
